<?xml version="1.0" encoding="utf-8"?>
<svg viewBox="0 0 1920 615" xmlns="http://www.w3.org/2000/svg">
  <g transform="matrix(0.1, 0, 0, -0.1, 0, 614.999984)" fill="#000000" stroke="none">
    <rect x="-10.32" y="-6149.08" width="19221.939" height="6196.69" style="stroke: rgb(0, 0, 0);" transform="matrix(1, 0, 0, -1, 0, 0)"/>
    <path d="M9009 6063 c-156 -338 -225 -607 -236 -914 -12 -341 46 -608 197 -909 140 -280 307 -481 663 -797 356 -316 781 -705 1157 -1058 775 -727 1070 -993 1355 -1221 771 -619 1471 -916 2540 -1080 163 -25 206 -28 450 -28 226 0 298 4 440 23 803 108 1660 466 2470 1033 350 245 641 492 958 810 l197 199 0 2014 0 2015 -5075 0 -5075 0 -41 -87z" style="fill: rgba(255, 157, 0, 0.8);"/>
  </g>
</svg>