<?xml version="1.0" standalone="no"?>
<!DOCTYPE svg PUBLIC "-//W3C//DTD SVG 20010904//EN"
 "http://www.w3.org/TR/2001/REC-SVG-20010904/DTD/svg10.dtd">
<svg version="1.0" xmlns="http://www.w3.org/2000/svg"
 width="1110.000000pt" height="301.000000pt" viewBox="0 0 1110.000000 301.000000"
 preserveAspectRatio="xMidYMid meet">

<g transform="translate(0.000000,301.000000) scale(0.100000,-0.100000)"
fill="#000000" stroke="none">
<path d="M0 1505 l0 -1505 663 0 663 0 18 57 c23 73 118 259 154 303 l29 34
64 -39 c35 -21 84 -54 109 -72 66 -50 196 -180 233 -235 l32 -47 535 0 535 0
38 77 c42 87 114 176 202 251 62 53 222 141 256 141 43 0 210 -270 255 -415
l18 -55 3648 0 3648 0 0 1505 0 1505 -428 0 -428 0 -18 -57 c-21 -67 -96 -215
-148 -294 -43 -64 -150 -188 -191 -219 -24 -19 -31 -20 -65 -10 -62 20 -183
89 -248 142 -114 92 -207 228 -254 371 l-23 67 -348 0 -349 0 -19 -38 c-52
-102 -202 -273 -311 -355 -56 -42 -182 -117 -197 -117 -15 0 -93 88 -139 158
-54 79 -128 227 -150 295 l-18 57 -3883 0 -3883 0 0 -1505z"/>
</g>
</svg>
