<?xml version="1.0" encoding="utf-8"?>
<svg version="1.1" id="Layer_1" x="0px" y="0px" width="100%" viewBox="0 0 1110 301" enable-background="new 0 0 1110 301" xmlns="http://www.w3.org/2000/svg">
  <defs>
    <radialGradient gradientUnits="userSpaceOnUse" cx="80.49" cy="276.521" r="72.021" id="gradient-0">
      <stop offset="0" style="stop-color: rgba(0, 213, 246, 1)"/>
      <stop offset="1" style="stop-color: rgba(0, 125, 144, 1)"/>
    </radialGradient>
    <radialGradient gradientUnits="userSpaceOnUse" cx="254.231" cy="255.976" r="100.237" id="gradient-1">
      <stop offset="0" style="stop-color: rgba(0, 213, 246, 1)"/>
      <stop offset="1" style="stop-color: rgba(0, 125, 144, 1)"/>
    </radialGradient>
    <radialGradient gradientUnits="userSpaceOnUse" cx="404.461" cy="276.418" r="48.46" id="gradient-2">
      <stop offset="0" style="stop-color: rgba(0, 213, 246, 1)"/>
      <stop offset="1" style="stop-color: rgba(0, 125, 144, 1)"/>
    </radialGradient>
    <linearGradient gradientUnits="userSpaceOnUse" x1="165.692" y1="262.991" x2="165.692" y2="302" id="gradient-3">
      <stop offset="0" style="stop-color: rgba(0, 213, 246, 1)"/>
      <stop offset="1" style="stop-color: rgba(0, 125, 144, 1)"/>
    </linearGradient>
    <linearGradient gradientUnits="userSpaceOnUse" x1="343.195" y1="254.994" x2="343.195" y2="302" id="gradient-4">
      <stop offset="0" style="stop-color: rgba(0, 213, 246, 1)"/>
      <stop offset="1" style="stop-color: rgba(0, 125, 144, 1)"/>
    </linearGradient>
    <radialGradient gradientUnits="userSpaceOnUse" cx="732.58" cy="31.936" r="74.427" id="gradient-5">
      <stop offset="0" style="stop-color: rgba(0, 213, 246, 1)"/>
      <stop offset="1" style="stop-color: rgba(0, 125, 144, 1)"/>
    </radialGradient>
    <radialGradient gradientUnits="userSpaceOnUse" cx="897.685" cy="46.797" r="88.342" id="gradient-6">
      <stop offset="0" style="stop-color: rgba(0, 213, 246, 1)"/>
      <stop offset="1" style="stop-color: rgba(0, 125, 144, 1)"/>
    </radialGradient>
    <radialGradient gradientUnits="userSpaceOnUse" cx="1037.921" cy="31.988" r="48.611" id="gradient-7">
      <stop offset="0" style="stop-color: rgba(0, 213, 246, 1)"/>
      <stop offset="1" style="stop-color: rgba(0, 125, 144, 1)"/>
    </radialGradient>
    <linearGradient gradientUnits="userSpaceOnUse" x1="819.282" y1="1" x2="819.282" y2="52.029" id="gradient-8">
      <stop offset="0" style="stop-color: rgba(0, 213, 246, 1)"/>
      <stop offset="1" style="stop-color: rgba(0, 125, 144, 1)"/>
    </linearGradient>
    <linearGradient gradientUnits="userSpaceOnUse" x1="977.822" y1="1.091" x2="977.822" y2="60.031" id="gradient-9">
      <stop offset="0" style="stop-color: rgba(0, 213, 246, 1)"/>
      <stop offset="1" style="stop-color: rgba(0, 125, 144, 1)"/>
    </linearGradient>
  </defs>
  <path opacity="1.000000" stroke="none" d=" M8.000000,302.000000 C5.667712,302.000000 3.335424,302.000000 1.002352,302.000000 C1.001568,201.712662 1.001568,101.425331 1.001568,1.000000 C219.689270,1.000000 438.378571,1.000000 657.686523,1.312372 C663.101074,8.801217 667.103455,16.694496 672.828186,23.031967 C699.822021,52.915131 733.436279,66.515564 773.779846,61.907177 C785.360901,60.584297 796.712463,57.942509 807.336121,52.027290 C808.104797,52.033623 808.544006,52.038750 809.069946,52.372585 C812.290405,56.115921 815.057739,59.981133 818.615967,62.873489 C845.783203,84.956680 876.721985,94.822311 911.854004,92.173836 C938.697876,90.150177 962.244812,80.598511 983.079773,63.879925 C984.301819,62.899284 985.055786,61.335304 986.397339,60.030685 C987.507751,59.998795 988.248230,59.979008 989.309937,60.167801 C1020.191650,68.632217 1052.532593,57.699341 1072.672241,30.848249 C1079.167480,22.188499 1082.318848,11.020528 1087.000000,0.999992 C1094.996460,1.000000 1102.993042,1.000000 1110.992188,1.000000 C1110.994751,101.285698 1110.994751,201.571396 1110.994751,302.000000 C891.977356,302.000000 672.954712,302.000000 453.387177,301.643738 C443.015289,277.357910 425.677887,261.582703 400.920044,254.294708 C385.979218,249.896576 370.889526,249.476379 355.755371,254.998596 C355.509705,254.992828 355.018402,254.978271 354.835205,254.701462 C347.315063,247.684082 340.512238,240.219910 332.542114,234.337204 C307.582184,215.914474 279.072815,208.172272 248.367279,210.293915 C221.147354,212.174713 196.291229,221.640182 175.459198,239.622910 C167.507690,246.486862 161.103638,255.143448 153.747772,262.991425 C153.501175,262.999756 153.007812,263.016541 152.690979,262.858734 C137.702408,255.349823 122.068176,251.501846 105.758156,251.083405 C76.972610,250.344940 51.195854,259.377106 29.270462,277.836609 C21.153000,284.670868 15.031681,293.876099 8.000000,302.000000 z" style=""/>
  <path opacity="1.000000" stroke="none" d=" M153.994385,262.983093 C161.103638,255.143448 167.507690,246.486862 175.459198,239.622910 C196.291229,221.640182 221.147354,212.174713 248.367279,210.293915 C279.072815,208.172272 307.582184,215.914474 332.542114,234.337204 C340.512238,240.219910 347.315063,247.684082 354.468201,254.785110 C330.694061,263.230042 314.053040,278.624268 305.000000,302.000000 C269.312439,302.000000 233.624878,302.000000 197.383224,301.665802 C193.626053,297.127777 190.642212,292.732880 187.177673,288.756897 C177.817810,278.015289 166.459839,269.767273 153.994385,262.983093 z" style="fill: url(#gradient-1);"/>
  <path opacity="1.000000" stroke="none" d=" M986.027527,60.042778 C985.055786,61.335304 984.301819,62.899284 983.079773,63.879925 C962.244812,80.598511 938.697876,90.150177 911.854004,92.173836 C876.721985,94.822311 845.783203,84.956680 818.615967,62.873489 C815.057739,59.981133 812.290405,56.115921 809.343323,52.158058 C831.856873,40.000816 849.454895,23.578007 861.000000,1.000000 C884.020874,1.000000 907.041809,1.000000 930.676147,1.343819 C936.084229,20.977825 946.583740,36.591774 962.786316,47.888603 C969.900024,52.848431 978.242798,56.045357 986.027527,60.042778 z" style="fill: url(#gradient-6);"/>
  <path opacity="1.000000" stroke="none" d=" M807.006592,52.026089 C796.712463,57.942509 785.360901,60.584297 773.779846,61.907177 C733.436279,66.515564 699.822021,52.915131 672.828186,23.031967 C667.103455,16.694496 663.101074,8.801217 658.152588,1.312372 C697.687561,1.000000 737.375122,1.000000 777.563538,1.385105 C779.151855,5.061173 780.063904,8.422778 781.356567,11.631057 C787.414856,26.667225 796.050598,40.088730 807.006592,52.026089 z" style="fill: url(#gradient-5);"/>
  <path opacity="1.000000" stroke="none" d=" M8.468658,302.000000 C15.031681,293.876099 21.153000,284.670868 29.270462,277.836609 C51.195854,259.377106 76.972610,250.344940 105.758156,251.083405 C122.068176,251.501846 137.702408,255.349823 152.510834,263.143127 C144.490524,275.447906 137.311310,287.785156 134.000000,302.000000 C92.312439,302.000000 50.624878,302.000000 8.468658,302.000000 z" style="fill: url(#gradient-0);"/>
  <path opacity="1.000000" stroke="none" d=" M986.397339,60.030670 C978.242798,56.045357 969.900024,52.848431 962.786316,47.888603 C946.583740,36.591774 936.084229,20.977825 931.144836,1.343819 C962.020935,1.000000 993.041809,1.000000 1024.499268,1.385109 C1019.754578,19.821476 1010.486023,35.561768 998.012634,49.505508 C994.944031,52.935818 991.993530,56.471813 988.988770,59.959206 C988.248230,59.979008 987.507751,59.998795 986.397339,60.030670 z" style="fill: url(#gradient-9); fill-opacity: 0.88;"/>
  <path opacity="1.000000" stroke="none" d=" M989.309937,60.167786 C991.993530,56.471813 994.944031,52.935818 998.012634,49.505508 C1010.486023,35.561768 1019.754578,19.821476 1024.967896,1.385109 C1045.354248,1.000000 1065.708496,1.000000 1086.531372,0.999992 C1082.318848,11.020528 1079.167480,22.188499 1072.672241,30.848249 C1052.532593,57.699341 1020.191650,68.632217 989.309937,60.167786 z" style="fill: url(#gradient-7);"/>
  <path opacity="1.000000" stroke="none" d=" M356.001068,255.004349 C370.889526,249.476379 385.979218,249.896576 400.920044,254.294708 C425.677887,261.582703 443.015289,277.357910 452.921143,301.643738 C429.312439,302.000000 405.624878,302.000000 381.389526,301.625977 C379.702850,297.783966 378.663300,294.279541 377.407532,290.854370 C372.533722,277.561127 364.286591,266.268341 356.001068,255.004349 z" style="fill: url(#gradient-2);"/>
  <path opacity="1.000000" stroke="none" d=" M807.336121,52.027290 C796.050598,40.088730 787.414856,26.667225 781.356567,11.631057 C780.063904,8.422778 779.151855,5.061173 778.032227,1.385105 C805.354248,1.000000 832.708435,1.000000 860.531372,1.000000 C849.454895,23.578007 831.856873,40.000816 809.256531,51.829346 C808.544006,52.038750 808.104797,52.033623 807.336121,52.027290 z" style="fill: url(#gradient-8); fill-opacity: 0.88;"/>
  <path opacity="1.000000" stroke="none" d=" M355.755371,254.998596 C364.286591,266.268341 372.533722,277.561127 377.407532,290.854370 C378.663300,294.279541 379.702850,297.783966 380.920868,301.625977 C355.979095,302.000000 330.958221,302.000000 305.468658,302.000000 C314.053040,278.624268 330.694061,263.230042 354.651428,255.061920 C355.018402,254.978271 355.509705,254.992828 355.755371,254.998596 z" style="fill: url(#gradient-4); fill-opacity: 0.92;"/>
  <path opacity="1.000000" stroke="none" d=" M134.468658,302.000000 C137.311310,287.785156 144.490524,275.447906 152.827667,263.300903 C153.007812,263.016541 153.501175,262.999756 153.747772,262.991425 C166.459839,269.767273 177.817810,278.015289 187.177673,288.756897 C190.642212,292.732880 193.626053,297.127777 196.914566,301.665802 C176.312439,302.000000 155.624878,302.000000 134.468658,302.000000 z" style="fill: url(#gradient-3); fill-opacity: 0.92;"/>
</svg>